<svg xmlns="http://www.w3.org/2000/svg" viewBox="0 0 53.54 76.79"><defs><style>.cls-1{fill:#b7dce1;}.cls-2{fill:#222;}.cls-3{fill:none;}</style></defs><g id="Layer_2" data-name="Layer 2"><g id="artwork"><path class="cls-1" d="M35.72,4.39c-.51,0-1,0-1.52.06a3.19,3.19,0,0,0-2.65-1.39l-3.83,0a3.27,3.27,0,0,0-2.89,1.76L24.2,5c-.84.14-1.69.25-2.53.42A11.92,11.92,0,0,0,17.1,7.23a8,8,0,0,0-3,9.68A13.91,13.91,0,0,0,17,21.24a5.68,5.68,0,0,0,2.77,3.08,6.73,6.73,0,0,0,2.88.74A9.12,9.12,0,0,0,31,24.52a3.58,3.58,0,0,0,.87-.82l.35-.12a3.45,3.45,0,0,0,2.15-1.92v0l.27,0a3.5,3.5,0,0,0,2.87-1.65,3.27,3.27,0,0,0,.38-1,3.36,3.36,0,0,0,2.18-3.12,3.91,3.91,0,0,0-1-2.45,3.75,3.75,0,0,0-.34-2.28,3.29,3.29,0,0,0,.16-.44,3.72,3.72,0,0,0,0-1.52A9.05,9.05,0,0,0,39,7.71,3.34,3.34,0,0,0,35.72,4.39Z"/><path class="cls-1" d="M12.47,46.15a2.87,2.87,0,0,0,2,2.17A23.12,23.12,0,0,0,23,49.1a3.22,3.22,0,0,0,2.29-1.16c3.25-.49,6.5-.88,9.77-1.16A3,3,0,0,0,38,43.89a1.23,1.23,0,0,0,0-.19,2.77,2.77,0,0,0,1.62-2.52,2.62,2.62,0,0,0-.06-.57,2.85,2.85,0,0,0-2.68-3.68l-1.36-.06-.14-.1a2.83,2.83,0,0,0,.87-2,2.75,2.75,0,0,0-.32-1.3A2.62,2.62,0,0,0,33.92,31a2.45,2.45,0,0,0-1.35-.82l-.42-.06A2.82,2.82,0,0,0,30.29,28a3,3,0,0,0-1.76-.63l-2.08-.08a2.94,2.94,0,0,0-1.09-.15,3.13,3.13,0,0,0-.6.1l-4.56-.16a2.64,2.64,0,0,0-2.61,1.78,2.91,2.91,0,0,0-2.4,2.3,21.36,21.36,0,0,0-4.33,12.46A2.85,2.85,0,0,0,12.47,46.15ZM24.16,40.3a3.07,3.07,0,0,0,.66.38l-.6.06-.1,0Z"/><path class="cls-2" d="M12.07,17.24a1.16,1.16,0,0,1,0-.18A1.16,1.16,0,0,0,12.07,17.24Z"/><path class="cls-2" d="M11.72,14.73a12.26,12.26,0,0,0,.1,1.34c0,.25.1.49.15.73A15.81,15.81,0,0,1,11.72,14.73Z"/><path class="cls-2" d="M17.74,24.47c1.28-1.1,3.15.75,1.86,1.86-.27.23-.52.47-.77.71,2.88,1.58,7.73.69,10.64.31l.16,0c1.93-.35-.38-1.83-2.55-1.55a9.93,9.93,0,0,1-6.9-2.06,12.08,12.08,0,0,1-4.89-8,12.52,12.52,0,0,1,3.09-10A9.39,9.39,0,0,1,23.69,2.5c2-.33,2-2,.21-1.94a2.74,2.74,0,0,0-.48,0C18.23,1.43,13.15,4.48,12,11a15.48,15.48,0,0,0-.23,3.7A15.81,15.81,0,0,0,12,16.8l.06.26a1.16,1.16,0,0,0,0,.18,15.85,15.85,0,0,0,4.63,8.19C17,25.1,17.38,24.78,17.74,24.47Z"/><path class="cls-2" d="M44.6,33.09A22.91,22.91,0,0,0,38,24a15.57,15.57,0,0,0,3.39-3.39,13.17,13.17,0,0,0,1.74-3.37,3.24,3.24,0,0,1,.59-.63,11.2,11.2,0,0,0,.55-4.35c0-1.39-.07-2.9-.49-3.49s0,.66-.26,0a14.87,14.87,0,0,0-2.31-4.39c-.4-.5-.29.41-.71.13-.22-.15-.41-.78-.65-.61l.09.31C35.67.28,29.44-.81,23.9.56c1.77,0,1.84,1.61-.21,1.94a9.39,9.39,0,0,0-5.31,3.19,14.15,14.15,0,0,1,3.06-1.94c5-2.34,11.28-2.18,15.79,1.11a10.13,10.13,0,0,1,3.29,12.9c-2.53,5-8.4,7.68-13.83,7.56a15.63,15.63,0,0,1-6.51-1.61,9.93,9.93,0,0,0,6.9,2.06c2.17-.28,4.48,1.2,2.55,1.55A19,19,0,0,0,35,25.76a.91.91,0,0,0,.17.17,19.06,19.06,0,0,1,6.59,8.82A26.12,26.12,0,0,1,43,43.49a3,3,0,0,1-2.85,3c-4.67.21-10.34.54-14.9.58H24.3c-.44-.14-1.63,0-1.18,0H16.79c-1.22,0-3.25.35-4.3-.45-1.37-1-.86-3.31-.71-4.76a26.37,26.37,0,0,1,1.27-5.68A22.56,22.56,0,0,1,18.83,27c.25-.24.5-.48.77-.71,1.29-1.11-.58-3-1.86-1.86-.36.31-.71.63-1,1A25.16,25.16,0,0,0,11.06,34a27.24,27.24,0,0,0-1.67,6c-.3,1.91-.75,4.26-.22,6.16a4.86,4.86,0,0,0,4.05,3.45,13.8,13.8,0,0,0,1.7.06h6.74c1.59,0,7.3.16,8.9.16,4.66,0,9.35-.09,14-.27A1.68,1.68,0,0,0,46.17,48C46.35,43.3,46.55,38,44.6,33.09Z"/><path class="cls-3" d="M24.82,40.68a3.07,3.07,0,0,1-.66-.38l0,.46.1,0Z"/><path class="cls-2" d="M4.4,73.3a7.42,7.42,0,0,1-3.53-.85A1.5,1.5,0,0,1,0,71.23c0-.69.48-1,1.15-1s1.62.9,3.22.9,2-.77,2-1.38c0-1-1.6-1.4-3.11-1.92C1.2,67.09.05,66.24.05,64.24s1.6-3.36,4.6-3.36a6.23,6.23,0,0,1,3.25.74,1.31,1.31,0,0,1,.63,1.07,1,1,0,0,1-1.12,1c-.89,0-1.54-.72-2.91-.72-1.18,0-1.84.49-1.84,1.2s.62,1,1.53,1.32C7.11,66.42,9,67,9,69.5,9,71.89,7,73.3,4.4,73.3Z"/><path class="cls-2" d="M10.31,62.08A1.55,1.55,0,0,1,12,60.48a1.62,1.62,0,1,1,0,3.23A1.58,1.58,0,0,1,10.31,62.08Zm.51,9.78v-6A1.16,1.16,0,0,1,12,64.59a1.14,1.14,0,0,1,1.17,1.27v6A1.14,1.14,0,0,1,12,73.13,1.16,1.16,0,0,1,10.82,71.86Z"/><path class="cls-2" d="M16.42,76.13a1.2,1.2,0,0,1-.5-1,.92.92,0,0,1,1-1c.76,0,1.24.51,2.18.51a2,2,0,0,0,2.21-2v-.34h0a2.84,2.84,0,0,1-2.18.87c-2.51,0-4.07-1.78-4.07-4.4s1.48-4.43,4.07-4.43a3,3,0,0,1,2.62,1.37h0v-.21a.92.92,0,0,1,.95-1,.93.93,0,0,1,1,1l0,6.19c0,3-1,5-4.55,5A5.15,5.15,0,0,1,16.42,76.13Zm5.09-7.27c0-1.42-.74-2.24-2-2.24a2.25,2.25,0,0,0,0,4.48A2,2,0,0,0,21.51,68.86Z"/><path class="cls-2" d="M26,71.86V65.61a1,1,0,1,1,1.91,0v.3h0a3.3,3.3,0,0,1,2.79-1.46c2.18,0,3.51,1.33,3.51,4.15v3.26a1.14,1.14,0,0,1-1.17,1.27,1.15,1.15,0,0,1-1.18-1.27V68.79c0-1.2-.4-2.21-1.62-2.21s-1.9.84-1.9,2.21v3.07a1.18,1.18,0,1,1-2.36,0Z"/><path class="cls-2" d="M40.11,62.08a1.54,1.54,0,0,1,1.68-1.6,1.62,1.62,0,1,1,0,3.23A1.57,1.57,0,0,1,40.11,62.08Zm.51,9.78v-6a1.16,1.16,0,0,1,1.19-1.27A1.14,1.14,0,0,1,43,65.86v6a1.14,1.14,0,0,1-1.17,1.27A1.16,1.16,0,0,1,40.62,71.86Z"/><path class="cls-2" d="M45.29,71.86V65.61a1,1,0,1,1,1.92,0v.3h0A3.29,3.29,0,0,1,50,64.45c2.17,0,3.51,1.33,3.51,4.15v3.26a1.18,1.18,0,1,1-2.36,0V68.79c0-1.2-.39-2.21-1.62-2.21s-1.89.84-1.89,2.21l0,3.07a1.14,1.14,0,0,1-1.17,1.27A1.16,1.16,0,0,1,45.29,71.86Z"/></g></g></svg>